<svg width="105" height="105" viewBox="0 0 105 105" fill="none" xmlns="http://www.w3.org/2000/svg">
<rect width="105" height="105" rx="15" fill="#CC68FB"/>
<rect x="27" y="54.5803" width="16.044" height="32.088" rx="4.49232" fill="#ECECEC"/>
<rect x="27" y="18" width="16.044" height="32.088" rx="4.49232" fill="#ECECEC"/>
<rect x="25" y="18" width="16.044" height="32.088" rx="4.49232" fill="white"/>
<rect x="25" y="54.5803" width="16.044" height="32.088" rx="4.49232" fill="white"/>
<path d="M48.228 58.99C48.228 56.4175 50.3135 54.332 52.886 54.332H64.5308C73.5346 54.332 80.8335 61.631 80.8335 70.6348V82.2796C80.8335 84.8521 78.7481 86.9375 76.1756 86.9375H57.5439C52.3989 86.9375 48.228 82.7667 48.228 77.6217V58.99Z" fill="#ECECEC"/>
<path d="M48.228 26.3843C48.228 21.7538 51.9818 18 56.6123 18H76.1756C78.7481 18 80.8335 20.0854 80.8335 22.6579V34.3028C80.8335 43.3065 73.5346 50.6055 64.5308 50.6055H52.886C50.3135 50.6055 48.228 48.5201 48.228 45.9476V26.3843Z" fill="#ECECEC"/>
<path d="M45.4331 59.9215C45.4331 56.8345 47.9356 54.332 51.0226 54.332H61.7359C70.7396 54.332 78.0386 61.631 78.0386 70.6348V81.348C78.0386 84.435 75.5361 86.9375 72.4491 86.9375H54.749C49.604 86.9375 45.4331 82.7667 45.4331 77.6217V59.9215Z" fill="white"/>
<path d="M45.4331 26.3843C45.4331 21.7538 49.1869 18 53.8174 18H72.4491C75.5361 18 78.0386 20.5025 78.0386 23.5895V34.3028C78.0386 43.3065 70.7396 50.6055 61.7359 50.6055H51.0226C47.9356 50.6055 45.4331 48.103 45.4331 45.016V26.3843Z" fill="white"/>
</svg>
