<svg width="54" height="42" viewBox="0 0 54 42" fill="none" xmlns="http://www.w3.org/2000/svg">
<path d="M4.005 36.675C5.56833 36.675 6.68833 36.3133 7.365 35.59C8.04167 34.89 8.43833 34.0267 8.555 33H6.91C5.69667 33 4.705 32.8717 3.935 32.615C3.165 32.3583 2.55833 31.9733 2.115 31.46C1.67167 30.9467 1.35667 30.3283 1.17 29.605C1.00667 28.8583 0.925 28.0067 0.925 27.05C0.925 26.14 1.05333 25.2767 1.31 24.46C1.56667 23.62 1.94 22.8967 2.43 22.29C2.94333 21.6833 3.57333 21.205 4.32 20.855C5.09 20.4817 5.97667 20.295 6.98 20.295C7.77333 20.295 8.52 20.4233 9.22 20.68C9.94333 20.9367 10.5733 21.345 11.11 21.905C11.6467 22.465 12.0667 23.2 12.37 24.11C12.6967 25.02 12.86 26.1283 12.86 27.435V28.205H15.38C15.8933 28.205 16.15 28.975 16.15 30.515C16.15 32.1717 15.8933 33 15.38 33H12.825C12.755 34.1433 12.51 35.2283 12.09 36.255C11.67 37.2817 11.0867 38.18 10.34 38.95C9.61667 39.72 8.73 40.3267 7.68 40.77C6.63 41.2367 5.46333 41.47 4.18 41.47H0.75L0.54 36.675H4.005ZM5.16 26.7C5.16 27.26 5.27667 27.6567 5.51 27.89C5.76667 28.1 6.23333 28.205 6.91 28.205H8.625V27.225C8.625 26.3383 8.47333 25.7317 8.17 25.405C7.89 25.0783 7.44667 24.915 6.84 24.915C5.72 24.915 5.16 25.51 5.16 26.7ZM17.6821 28.205C18.3587 28.205 18.8487 28.0533 19.1521 27.75C19.4554 27.4233 19.6071 26.9217 19.6071 26.245V22.605H24.0521V26.245C24.0521 26.9217 24.2621 27.4233 24.6821 27.75C25.1021 28.0533 25.6504 28.205 26.3271 28.205H27.0971C27.6337 28.205 27.9021 28.975 27.9021 30.515C27.9021 32.1717 27.6337 33 27.0971 33H26.1521C25.2654 33 24.4487 32.8717 23.7021 32.615C22.9787 32.335 22.3254 31.7517 21.7421 30.865C21.1354 31.7517 20.4937 32.335 19.8171 32.615C19.1637 32.8717 18.4521 33 17.6821 33H15.3721C15.0687 33 14.8704 32.8133 14.7771 32.44C14.6604 32.0433 14.6021 31.46 14.6021 30.69C14.6021 29.8033 14.6604 29.1733 14.7771 28.8C14.8704 28.4033 15.0687 28.205 15.3721 28.205H17.6821ZM23.2471 41.05H18.6271V36.815H23.2471V41.05ZM27.6278 9.515L31.8278 7.94C31.6411 7.75333 31.4545 7.485 31.2678 7.135C31.0811 6.76167 30.9878 6.33 30.9878 5.84C30.9878 5.35 31.0811 4.90667 31.2678 4.51C31.4311 4.11333 31.6645 3.775 31.9678 3.495C32.2711 3.215 32.6095 3.005 32.9828 2.865C33.3561 2.70167 33.7528 2.62 34.1728 2.62C35.1528 2.62 35.9345 2.935 36.5178 3.565C37.1245 4.17167 37.4278 5 37.4278 6.05C37.4278 6.75 37.2061 7.40333 36.7628 8.01C36.3428 8.59333 35.6895 9.10667 34.8028 9.55L28.6778 12L27.6278 9.515ZM33.3678 6.05C33.3678 6.47 33.6361 6.855 34.1728 7.205C34.4995 7.04167 34.7211 6.855 34.8378 6.645C34.9545 6.435 35.0128 6.21333 35.0128 5.98C35.0128 5.79333 34.9545 5.61833 34.8378 5.455C34.7211 5.26833 34.4995 5.175 34.1728 5.175C33.8461 5.175 33.6245 5.26833 33.5078 5.455C33.4145 5.64167 33.3678 5.84 33.3678 6.05ZM29.4057 28.205C30.0824 28.205 30.5724 28.0533 30.8757 27.75C31.179 27.4233 31.3307 26.9217 31.3307 26.245V22.605H35.7757V26.245C35.7757 26.9217 35.9857 27.4233 36.4057 27.75C36.8257 28.0533 37.374 28.205 38.0507 28.205H38.8207C39.3574 28.205 39.6257 28.975 39.6257 30.515C39.6257 32.1717 39.3574 33 38.8207 33H37.8757C36.989 33 36.1724 32.8717 35.4257 32.615C34.7024 32.335 34.049 31.7517 33.4657 30.865C32.859 31.7517 32.2174 32.335 31.5407 32.615C30.8874 32.8717 30.1757 33 29.4057 33H27.0957C26.7924 33 26.594 32.8133 26.5007 32.44C26.384 32.0433 26.3257 31.46 26.3257 30.69C26.3257 29.8033 26.384 29.1733 26.5007 28.8C26.594 28.4033 26.7924 28.205 27.0957 28.205H29.4057ZM37.8407 18.755H33.6057V14.695H37.8407V18.755ZM32.4507 18.755H28.2157V14.695H32.4507V18.755ZM40.4452 7.515L44.6452 5.94C44.4585 5.75333 44.2719 5.485 44.0852 5.135C43.8985 4.76167 43.8052 4.33 43.8052 3.84C43.8052 3.35 43.8985 2.90667 44.0852 2.51C44.2485 2.11333 44.4819 1.775 44.7852 1.495C45.0885 1.215 45.4269 1.005 45.8002 0.865C46.1735 0.701666 46.5702 0.62 46.9902 0.62C47.9702 0.62 48.7519 0.935 49.3352 1.565C49.9419 2.17167 50.2452 3 50.2452 4.05C50.2452 4.75 50.0235 5.40333 49.5802 6.01C49.1602 6.59333 48.5069 7.10667 47.6202 7.55L41.4952 10L40.4452 7.515ZM46.1852 4.05C46.1852 4.47 46.4535 4.855 46.9902 5.205C47.3169 5.04167 47.5385 4.855 47.6552 4.645C47.7719 4.435 47.8302 4.21333 47.8302 3.98C47.8302 3.79333 47.7719 3.61833 47.6552 3.455C47.5385 3.26833 47.3169 3.175 46.9902 3.175C46.6635 3.175 46.4419 3.26833 46.3252 3.455C46.2319 3.64167 46.1852 3.84 46.1852 4.05ZM47.1143 28.205C47.4877 28.205 47.7327 28.1233 47.8493 27.96C47.9893 27.7967 48.0593 27.6217 48.0593 27.435C48.0593 27.1317 48.001 26.8633 47.8843 26.63C47.791 26.3967 47.5927 26.14 47.2893 25.86L41.3043 19.91V14.905L52.8893 10.67L53.8343 15.08L45.5743 17.985L49.9843 22.43C50.5443 23.0133 51.011 23.55 51.3843 24.04C51.7577 24.53 52.0493 25.0083 52.2593 25.475C52.4927 25.9183 52.656 26.3617 52.7493 26.805C52.8427 27.2483 52.8893 27.715 52.8893 28.205C52.8893 29.0683 52.7493 29.8033 52.4693 30.41C52.1893 31.0167 51.816 31.5183 51.3493 31.915C50.8827 32.2883 50.3343 32.5683 49.7043 32.755C49.0743 32.9183 48.3977 33 47.6743 33H38.8193C38.516 33 38.3177 32.8133 38.2243 32.44C38.1077 32.0433 38.0493 31.46 38.0493 30.69C38.0493 29.8033 38.1077 29.1733 38.2243 28.8C38.3177 28.4033 38.516 28.205 38.8193 28.205H47.1143Z" fill="#CC68FB"/>
</svg>
